<?xml version="1.0" encoding="utf-8"?>
<!-- Generator: Adobe Illustrator 16.0.0, SVG Export Plug-In . SVG Version: 6.00 Build 0)  -->
<!DOCTYPE svg PUBLIC "-//W3C//DTD SVG 1.1//EN" "http://www.w3.org/Graphics/SVG/1.1/DTD/svg11.dtd">
<svg version="1.1" id="Layer_1" xmlns="http://www.w3.org/2000/svg" xmlns:xlink="http://www.w3.org/1999/xlink" x="0px" y="0px"
	 width="327.3px" height="138.716px" viewBox="0 0 327.3 138.716" enable-background="new 0 0 327.3 138.716" xml:space="preserve">
<path opacity="0.6" fill="#FFFFFF" d="M171.301,22.507c0.682,0,1.354,0.039,2.02,0.11c4.078-6.178,11.079-10.256,19.037-10.256
	c7.091,0,13.428,3.238,17.609,8.315c3.003-2.596,6.912-4.17,11.193-4.17c9.46,0,17.129,7.669,17.129,17.129
	c0,8.023-5.517,14.755-12.964,16.617c0.481,1.503,0.744,3.104,0.744,4.767c0,8.616-6.984,15.602-15.601,15.602
	c-4.995,0-9.437-2.35-12.291-6c-2.803,3.27-6.96,5.344-11.604,5.344c-6.562,0-12.158-4.141-14.318-9.952
	c-0.318,0.015-0.636,0.024-0.955,0.024c-10.365,0-18.765-8.402-18.765-18.765C152.536,30.909,160.936,22.507,171.301,22.507z"/>
<path opacity="0.6" fill="#FFFFFF" d="M123.303,28.766c-0.959,0-1.905,0.054-2.837,0.154c-5.732-8.682-15.571-14.413-26.753-14.413
	c-9.966,0-18.869,4.55-24.746,11.686c-4.219-3.648-9.715-5.86-15.73-5.86c-13.294,0-24.071,10.777-24.071,24.071
	c0,11.275,7.753,20.736,18.218,23.351c-0.678,2.112-1.047,4.362-1.047,6.699c0,12.108,9.816,21.926,21.925,21.926
	c7.018,0,13.26-3.302,17.273-8.432c3.937,4.595,9.777,7.51,16.303,7.51c9.224,0,17.087-5.818,20.124-13.984
	c0.444,0.021,0.892,0.033,1.341,0.033c14.564,0,26.369-11.807,26.369-26.37C149.672,40.572,137.867,28.766,123.303,28.766z"/>
<path opacity="0.6" fill="#FFFFFF" d="M298.135,89.37c0-9.46-7.669-17.129-17.129-17.129c-4.281,0-8.191,1.573-11.193,4.17
	c-4.183-5.078-10.519-8.316-17.61-8.316c-7.957,0-14.959,4.079-19.037,10.256c-0.664-0.07-1.337-0.109-2.02-0.109
	c-2.947,0-5.735,0.682-8.218,1.893c-1.366-0.25-2.772-0.387-4.211-0.387c-12.871,0-23.305,10.434-23.305,23.305
	c0,12.87,10.434,23.304,23.305,23.304c6.143,0,11.727-2.381,15.89-6.265c2.801,3.419,7.048,5.608,11.813,5.608
	c4.644,0,8.8-2.073,11.603-5.344c2.855,3.649,7.297,6,12.291,6c8.617,0,15.603-6.986,15.603-15.603c0-1.662-0.264-3.265-0.745-4.767
	C292.617,104.125,298.135,97.393,298.135,89.37z"/>
</svg>
