<?xml version="1.0" encoding="utf-8"?>
<!-- Generator: Adobe Illustrator 16.0.0, SVG Export Plug-In . SVG Version: 6.00 Build 0)  -->
<!DOCTYPE svg PUBLIC "-//W3C//DTD SVG 1.1//EN" "http://www.w3.org/Graphics/SVG/1.1/DTD/svg11.dtd">
<svg version="1.1" id="Layer_1" xmlns="http://www.w3.org/2000/svg" xmlns:xlink="http://www.w3.org/1999/xlink" x="0px" y="0px"
	 width="441.333px" height="198.028px" viewBox="0 0 441.333 198.028" enable-background="new 0 0 441.333 198.028"
	 xml:space="preserve">
<path opacity="0.5" d="M382.11,62.041c-3.144,0-6.229,0.25-9.24,0.722c-14.599-20.453-38.51-33.801-65.553-33.801
	c-8.667,0-17.007,1.386-24.83,3.921C264.248,12.691,237.861,0,208.508,0c-33.538,0-63.206,16.565-81.271,41.96
	c-13.376-10.519-30.234-16.81-48.571-16.81C35.22,25.15,0,60.37,0,103.817c0,43.445,35.22,78.666,78.667,78.666
	c20.147,0,38.517-7.583,52.435-20.039c18.274,22.505,46.159,36.89,77.407,36.89c22.272,0,42.836-7.308,59.43-19.652
	c11.645,6.545,25.07,10.295,39.379,10.295c17.999,0,34.615-5.91,48.022-15.891c8.042,4.085,17.134,6.401,26.771,6.401
	c32.71,0,59.224-26.516,59.224-59.224C441.333,88.556,414.82,62.041,382.11,62.041z"/>
<g opacity="0.5">
	
		<linearGradient id="SVGID_1_" gradientUnits="userSpaceOnUse" x1="179.5684" y1="-18.4507" x2="192.6787" y2="-18.4507" gradientTransform="matrix(0.9933 0.1153 -0.1153 0.9933 11.222 86.2369)">
		<stop  offset="0.3133" style="stop-color:#DBDBDB"/>
		<stop  offset="1" style="stop-color:#757575"/>
	</linearGradient>
	<polygon fill="url(#SVGID_1_)" points="201.633,82.125 204.979,88.039 195.523,96.696 191.267,92.466 	"/>
</g>
<g opacity="0.5">
	
		<linearGradient id="SVGID_2_" gradientUnits="userSpaceOnUse" x1="136.061" y1="-52.4609" x2="149.4331" y2="-52.4609" gradientTransform="matrix(0.9828 0.1848 -0.1848 0.9828 17.3475 144.8455)">
		<stop  offset="0.3133" style="stop-color:#DBDBDB"/>
		<stop  offset="1" style="stop-color:#757575"/>
	</linearGradient>
	<polygon fill="url(#SVGID_2_)" points="170.629,112.801 174.578,117.318 164.038,126.532 160.089,122.014 	"/>
</g>
<rect x="298.333" y="96.667" fill="#FFD700" width="24" height="21"/>
<path fill="#FFD700" d="M405.46,109.783c-0.49-0.98-1.26-1.75-2.3-2.302c-1.045-0.553-2.21-0.796-3.498-0.737
	c-1.29,0.063-2.302,0.645-3.039,1.75c-1.72,2.087-3.313,4.083-4.786,5.984c-1.473,1.903-3.562,3.897-6.26,5.983
	c-2.946,2.208-5.708,3.928-8.285,5.154c0.611-0.735,1.255-1.533,1.933-2.394c0.673-0.855,1.316-1.776,1.933-2.761
	c2.33-3.559,4.111-7.181,5.339-10.863c1.226-3.684,1.901-7.18,2.024-10.495c0.123-3.313-0.339-6.259-1.38-8.837
	c-1.043-2.579-2.67-4.603-4.879-6.075c-2.457-1.596-5.247-2.239-8.378-1.933c-3.129,0.306-6.352,1.379-9.665,3.221l3.866-8.839
	c0.613-1.473,0.461-2.697-0.461-3.681c-0.92-0.982-2.148-1.658-3.682-2.027c-1.537-0.367-3.101-0.367-4.695,0
	c-1.597,0.369-2.641,1.105-3.129,2.212c-0.86,1.964-2.334,5.186-4.42,9.664c-2.088,4.483-4.45,9.606-7.088,15.376
	c-1.545,3.376-3.148,6.868-4.797,10.453c-1.434,2.02-2.78,3.661-4.039,4.919c-1.289,1.289-2.978,3.039-5.062,5.247
	c-1.105,1.104-2.209,1.965-3.314,2.578c-1.104,0.615-2.088,0.953-2.945,1.013c-0.859,0.062-1.381-0.185-1.564-0.736
	c-0.186-0.553,0.092-1.501,0.828-2.854c0.857-1.226,1.994-3.158,3.406-5.799c1.408-2.64,2.913-5.461,4.51-8.469
	c1.596-3.008,3.131-5.952,4.604-8.838c1.473-2.883,2.698-5.309,3.684-7.271c0.98-1.718,1.072-3.068,0.275-4.051
	c-0.799-0.982-1.965-1.567-3.499-1.75c-1.536-0.185-3.162,0.063-4.879,0.736c-1.72,0.675-2.946,1.748-3.683,3.221
	c-0.859-0.856-1.779-1.593-2.762-2.207c-0.983-0.613-2.057-1.135-3.221-1.567c-1.169-0.429-2.55-0.644-4.144-0.644
	c-2.333,0-5.063,0.492-8.192,1.473c-3.131,0.985-6.353,2.517-9.668,4.604c-3.312,2.089-6.6,4.758-9.85,8.01
	c-3.253,3.253-6.046,7.088-8.377,11.507c-0.165,0.295-0.312,0.587-0.467,0.88c-1.432,2.022-2.721,3.729-3.857,5.104
	c-1.168,1.413-2.917,3.102-5.247,5.062c-4.175,3.808-8.103,6.938-11.783,9.39l4.787-9.39c0.736-1.348,1.81-3.343,3.221-5.982
	c1.409-2.64,2.915-5.433,4.513-8.379c1.593-2.944,3.158-5.858,4.693-8.744c1.533-2.883,2.791-5.309,3.775-7.271
	c0.98-1.718,1.072-3.068,0.275-4.051c-0.799-0.982-1.964-1.567-3.498-1.75c-1.536-0.185-3.162,0.063-4.879,0.736
	c-1.721,0.675-2.947,1.748-3.684,3.221c-0.859-0.856-1.779-1.593-2.762-2.207c-0.982-0.613-2.056-1.135-3.221-1.567
	c-1.168-0.429-2.549-0.644-4.143-0.644c-2.334,0-5.064,0.492-8.193,1.473c-3.131,0.985-6.352,2.517-9.667,4.604
	c-3.313,2.089-6.6,4.758-9.851,8.01c-3.252,3.253-6.045,7.088-8.377,11.507c-0.158,0.286-0.301,0.567-0.451,0.851
	c-0.741,1.074-1.873,2.229-3.414,3.475c-1.596,1.29-3.285,2.427-5.062,3.407c-1.781,0.983-3.47,1.688-5.062,2.117
	c-1.598,0.433-2.763,0.276-3.5-0.46c-1.104-0.98-1.933-2.547-2.484-4.695c-0.553-2.146-0.708-4.694-0.461-7.641
	c2.579-1.594,5.368-3.527,8.378-5.799c3.006-2.271,5.983-4.816,8.929-7.641s5.769-5.921,8.47-9.298
	c2.699-3.376,5.154-7.025,7.365-10.957c2.577-4.662,3.984-8.621,4.235-11.875c0.243-3.249-0.278-5.799-1.567-7.641
	c-1.289-1.841-3.131-3.006-5.523-3.497s-4.97-0.245-7.73,0.735c-2.762,0.985-5.559,2.641-8.379,4.972
	c-2.825,2.333-5.218,5.402-7.181,9.205c-0.981,1.843-2.64,4.941-4.97,9.3c-2.334,4.356-5.003,9.328-8.01,14.911
	c-3.009,5.588-6.2,11.508-9.574,17.769c-0.607,1.127-1.2,2.229-1.794,3.332c-0.043,0.06-0.095,0.104-0.137,0.166
	c-1.72,2.087-3.837,4.511-6.352,7.272c-2.517,2.763-5.126,5.187-7.825,7.272c-3.314,2.456-6.047,3.652-8.194,3.591
	c-2.148-0.061-3.745-0.856-4.787-2.394c-1.044-1.533-1.536-3.527-1.473-5.984c0.061-2.454,0.581-4.848,1.566-7.181
	c3.681-2.945,7.424-6.013,11.231-9.205c3.19-2.699,6.596-5.645,10.218-8.838c3.62-3.19,7.025-6.26,10.218-9.207
	c4.664-4.419,8.47-8.528,11.415-12.335c2.947-3.803,5.155-7.272,6.628-10.402c1.473-3.13,2.302-5.951,2.486-8.469
	c0.185-2.516-0.156-4.756-1.013-6.721c-0.984-2.331-2.208-3.65-3.681-3.959c-1.473-0.306-3.684,0.276-6.629,1.75
	c-3.93,1.841-8.194,4.727-12.797,8.653c-4.603,3.929-9.206,8.561-13.808,13.9c-4.603,5.339-9.054,11.293-13.349,17.86
	c-4.298,6.565-8.101,13.531-11.415,20.896c-0.535,1.135-1.025,2.314-1.487,3.52c-1.466,2.077-2.842,3.757-4.126,5.041
	c-1.289,1.289-2.977,3.039-5.063,5.247c-1.104,1.104-2.209,1.965-3.313,2.578c-1.104,0.615-2.088,0.953-2.946,1.013
	c-0.86,0.062-1.381-0.185-1.564-0.736c-0.185-0.553,0.092-1.501,0.828-2.854c0.857-1.226,1.994-3.158,3.406-5.799
	c1.409-2.64,2.915-5.461,4.511-8.469c1.593-3.008,3.13-5.952,4.603-8.838c1.472-2.883,2.698-5.309,3.682-7.271
	c0.981-1.718,1.073-3.068,0.276-4.051c-0.8-0.982-1.965-1.567-3.499-1.75c-1.535-0.185-3.161,0.063-4.879,0.736
	c-1.72,0.675-2.946,1.748-3.682,3.221c-0.86-0.856-1.781-1.593-2.762-2.207c-0.984-0.613-2.057-1.135-3.222-1.567
	c-1.168-0.429-2.549-0.644-4.143-0.644c-2.333,0-5.064,0.492-8.194,1.473c-3.13,0.985-6.352,2.517-9.666,4.604
	c-3.314,2.089-6.599,4.758-9.85,8.01c-3.253,3.253-6.047,7.088-8.377,11.507c-0.158,0.284-0.3,0.563-0.449,0.845
	c-1.468,2.062-3.492,4.419-6.086,7.071c-2.641,2.702-5.371,5.095-8.193,7.181c-0.616,0.492-1.289,0.954-2.025,1.382
	c-0.737,0.433-1.381,0.708-1.933,0.828c-0.553,0.123-0.861-0.028-0.921-0.46c-0.063-0.431,0.275-1.319,1.012-2.67
	c1.594-2.577,3.099-5.063,4.511-7.456c1.41-2.396,2.79-4.942,4.143-7.642c2.085-3.802,3.682-7.21,4.787-10.219
	c1.104-3.007,1.042-5.737-0.185-8.191c-0.736-1.596-1.688-3.008-2.853-4.235c-1.168-1.227-2.61-1.963-4.327-2.209
	c-1.72-0.247-3.837,0.122-6.352,1.103c-2.518,0.984-5.432,2.947-8.746,5.893c2.21-4.908,4.327-9.695,6.353-14.359
	c2.025-4.664,3.895-8.867,5.615-12.614c1.717-3.742,3.13-6.902,4.235-9.481c1.105-2.578,1.841-4.234,2.209-4.972
	c0.613-1.473,0.46-2.699-0.46-3.682c-0.921-0.98-2.149-1.657-3.683-2.025c-1.536-0.368-3.07-0.397-4.603-0.092
	c-1.536,0.307-2.548,1.077-3.037,2.302l-39.77,85.245c-1.105,2.333-1.197,4.268-0.276,5.8c0.92,1.536,2.208,2.577,3.866,3.132
	c1.657,0.55,3.377,0.579,5.155,0.09c1.778-0.491,3.098-1.593,3.958-3.314l12.52-27.985c1.717-1.719,3.559-3.341,5.523-4.878
	c1.962-1.535,3.927-2.976,5.892-4.327c0.613-0.488,1.381-0.95,2.302-1.381c0.92-0.43,1.686-0.706,2.301-0.828
	c0.613-0.122,1.013,0.032,1.196,0.46c0.185,0.432-0.091,1.32-0.828,2.669c-0.616,0.861-1.26,1.934-1.934,3.223
	c-0.675,1.289-1.412,2.641-2.208,4.051c-0.8,1.41-1.565,2.794-2.302,4.142c-0.737,1.353-1.352,2.519-1.841,3.499
	c-2.089,3.929-3.591,7.396-4.512,10.402c-0.92,3.01-0.768,5.739,0.461,8.193c0.736,1.597,1.778,2.945,3.13,4.051
	c1.349,1.105,3.039,1.686,5.063,1.75c2.025,0.06,4.355-0.46,6.996-1.566c2.639-1.105,5.616-3.129,8.93-6.075
	c1.19-1.021,2.34-2.121,3.471-3.261c0.198,0.883,0.439,1.732,0.763,2.523c1.104,2.702,2.822,4.787,5.155,6.262
	c2.33,1.473,5.092,2.207,8.285,2.207c4.54,0,7.946-0.672,10.218-2.022c2.27-1.352,4.387-2.641,6.353-3.868
	c0.981,1.473,2.146,2.761,3.498,3.868c1.35,1.103,3.006,1.716,4.971,1.838c1.962,0.122,4.235-0.365,6.812-1.472
	c2.578-1.105,5.524-3.129,8.837-6.075c1.562-1.339,3.066-2.792,4.529-4.336c0.438,2.299,1.378,4.358,2.833,6.177
	c1.225,1.597,2.946,2.945,5.155,4.051s4.695,1.718,7.457,1.84s5.768-0.397,9.021-1.563c0.872-0.312,1.748-0.702,2.625-1.144
	c-0.325,0.6-0.658,1.215-0.97,1.787c-2.27,4.172-3.834,7.057-4.695,8.655c-1.226,2.207-1.441,4.109-0.645,5.705
	c0.8,1.595,1.997,2.731,3.59,3.408c1.597,0.672,3.315,0.827,5.155,0.46c1.842-0.37,3.253-1.413,4.235-3.131
	c0.368-0.491,1.044-1.748,2.025-3.775c0.984-2.023,2.241-4.51,3.775-7.456c1.536-2.946,3.283-6.32,5.247-10.127
	c1.962-3.804,3.987-7.732,6.076-11.782c0.245,3.807,1.165,6.538,2.762,8.192c1.594,1.657,3.683,2.61,6.26,2.854
	c2.332,0.247,4.879-0.244,7.641-1.473c2.617-1.162,5.146-2.61,7.597-4.324c0.145,1.917,0.508,3.68,1.148,5.244
	c1.104,2.702,2.822,4.787,5.155,6.262c2.331,1.473,5.092,2.207,8.285,2.207c2.33,0,4.327-0.216,5.983-0.644
	c1.657-0.429,3.159-0.948,4.512-1.563l-0.369,0.918c-4.051,1.596-7.856,2.916-11.414,3.96c-3.562,1.042-6.753,2.208-9.575,3.496
	c-2.821,1.292-5.247,2.856-7.273,4.697c-2.024,1.84-3.525,4.354-4.51,7.549c-1.226,3.683-0.645,6.656,1.748,8.929
	c2.394,2.27,5.587,3.467,9.575,3.591c3.987,0.122,8.254-1.015,12.797-3.406c4.539-2.393,8.344-6.476,11.414-12.245l6.076-11.599
	c4.051-1.596,7.978-3.313,11.783-5.155c3.804-1.842,7.117-3.926,9.943-6.259c1.178-1.01,2.336-2.08,3.484-3.176
	c0.195,0.852,0.434,1.672,0.747,2.438c1.104,2.702,2.822,4.787,5.156,6.262c2.329,1.473,5.091,2.207,8.284,2.207
	c4.54,0,7.945-0.672,10.219-2.022c2.27-1.352,4.388-2.641,6.352-3.868c0.98,1.473,2.146,2.761,3.498,3.868
	c1.35,1.103,3.006,1.716,4.972,1.838c1.962,0.122,4.235-0.365,6.812-1.472c1.195-0.513,2.479-1.243,3.831-2.151
	c-0.019,0.042-0.039,0.085-0.059,0.126c-2.638,5.645-5,10.647-7.089,15.007c-2.085,4.354-3.498,7.392-4.234,9.112
	c-1.105,2.332-1.197,4.265-0.275,5.8c0.921,1.533,2.209,2.578,3.865,3.131c1.658,0.55,3.378,0.55,5.156,0
	c1.781-0.553,3.102-1.689,3.958-3.405c0.247-0.493,0.829-1.75,1.749-3.775c0.92-2.027,2.025-4.512,3.314-7.457
	s2.762-6.291,4.42-10.034c1.655-3.746,3.405-7.642,5.246-11.692c1.227,2.333,2.699,3.991,4.42,4.974
	c1.961,1.351,4.478,2.022,7.548,2.022c2.21,0.246,4.786,0.307,7.732,0.185c2.946-0.123,6.013-0.552,9.206-1.289
	c3.19-0.735,6.353-1.841,9.481-3.313c3.131-1.473,5.985-3.374,8.562-5.707c3.314-3.19,6.198-6.104,8.654-8.746
	c2.454-2.638,4.234-4.755,5.339-6.353C405.765,111.808,405.951,110.765,405.46,109.783z M212.974,83.637
	c0.92-1.718,1.902-3.559,2.945-5.523c1.042-1.961,1.994-3.803,2.854-5.523c0.857-1.717,1.41-2.762,1.657-3.131
	c1.718-3.312,3.25-5.736,4.604-7.271c1.348-1.533,2.33-2.302,2.943-2.302c0.612,0,0.766,0.769,0.462,2.302
	c-0.31,1.535-1.322,3.774-3.04,6.721c-2.455,4.174-4.879,7.704-7.271,10.587c-2.393,2.884-4.635,5.311-6.721,7.272
	C211.529,86.399,212.052,85.358,212.974,83.637z M176.612,78.114c2.454-3.434,5.523-7.24,9.206-11.416
	c3.682-4.17,8.102-8.221,13.256-12.15c0.245,0.736,0.029,1.812-0.644,3.222c-0.677,1.413-1.689,3.008-3.039,4.787
	c-1.352,1.78-2.917,3.714-4.694,5.8c-1.781,2.09-3.654,4.114-5.616,6.077c-4.543,4.786-9.822,9.942-15.834,15.466
	C171.209,86.095,173.667,82.165,176.612,78.114z M235.159,151.393c-1.474,2.452-3.039,4.294-4.694,5.523
	c-1.658,1.227-3.162,1.992-4.512,2.302c-1.354,0.304-2.457,0.244-3.314-0.185c-0.856-0.431-1.164-1.137-0.921-2.117
	c0.37-1.473,1.994-2.945,4.88-4.419c2.881-1.473,6.472-3.07,10.771-4.786L235.159,151.393z M254.49,113.649
	c-1.84,2.456-3.714,4.603-5.615,6.443c-1.904,1.842-3.773,3.314-5.616,4.419c-1.84,1.104-3.528,1.78-5.062,2.025
	c-1.537,0.249-2.733,0-3.59-0.736c-0.984-0.736-1.565-1.87-1.75-3.406c-0.186-1.532,0-3.314,0.551-5.339
	c0.555-2.026,1.442-4.203,2.672-6.537c1.225-2.33,2.762-4.722,4.602-7.18c1.841-2.331,3.711-4.421,5.616-6.26
	c1.901-1.841,3.742-3.314,5.523-4.418c1.777-1.105,3.436-1.812,4.972-2.117c1.531-0.307,2.789-0.095,3.774,0.644
	c0.98,0.735,1.532,1.872,1.656,3.406c0.12,1.535-0.093,3.313-0.645,5.339s-1.412,4.234-2.577,6.628
	C257.833,108.954,256.333,111.32,254.49,113.649z M372.136,114.753c-1.72,2.334-3.498,4.419-5.339,6.26
	c-1.842,1.841-3.654,3.286-5.433,4.327c-1.779,1.044-3.529,1.658-5.246,1.841c-1.721,0.184-3.193-0.151-4.42-1.013
	c-0.983-0.612-1.535-1.625-1.656-3.038c-0.125-1.408,0.029-3.098,0.461-5.063c0.428-1.962,1.195-4.11,2.301-6.443
	c1.104-2.331,2.454-4.724,4.051-7.182c1.594-2.33,3.375-4.387,5.339-6.167c1.962-1.777,3.834-3.19,5.615-4.235
	c1.778-1.041,3.437-1.686,4.972-1.933c1.533-0.245,2.789-0.06,3.775,0.554c0.856,0.614,1.408,1.656,1.656,3.129
	c0.244,1.473,0.184,3.223-0.186,5.247c-0.367,2.025-1.043,4.234-2.025,6.629C375.018,110.059,373.73,112.423,372.136,114.753z"/>
<g opacity="0.9">
	<path fill="#FFFFFF" d="M111.184,120.701l5.341-1.227l4.89,14.618c-1.643,1.362-5.755,6.101-5.755,6.101L111.184,120.701z"/>
</g>
<g opacity="0.5">
	<linearGradient id="SVGID_3_" gradientUnits="userSpaceOnUse" x1="132.3335" y1="147.5464" x2="144.5835" y2="147.5464">
		<stop  offset="0" style="stop-color:#FFFFFF"/>
		<stop  offset="0.3133" style="stop-color:#ADAEB0"/>
		<stop  offset="1" style="stop-color:#757575"/>
	</linearGradient>
	<path fill="url(#SVGID_3_)" d="M138.083,144.011c1.5,1.155,5.188,1.905,6.5,1.968l-6.5,5.103l-5.75-3.535L138.083,144.011z"/>
</g>
<g opacity="0.7">
	<linearGradient id="SVGID_4_" gradientUnits="userSpaceOnUse" x1="241.5835" y1="62.0732" x2="264.5034" y2="62.0732">
		<stop  offset="0" style="stop-color:#C7C7C7"/>
		<stop  offset="0.6867" style="stop-color:#E3E3E3"/>
	</linearGradient>
	<path fill="url(#SVGID_4_)" d="M264.503,61.395c-10.686-5.083-14.49-3.714-14.49-3.714l-8.43,5.478c0,0,5.387,1.278,9.592,3.475
		L264.503,61.395z"/>
</g>
<g opacity="0.8">
	<g>
		<path fill="#292929" d="M114.578,121.263c0.262-5.007,3.064-5.455,7.128-10.575c2.212-2.791,3.23-5.508,3.23-7.158
			c0-5.729-4.661-10.373-10.411-10.373l0,0c-5.751,0-10.412,4.644-10.411,10.373c0,1.65,1.018,4.367,3.23,7.158
			c4.063,5.12,6.866,5.568,7.128,10.575H114.578z"/>
		<g>
			<ellipse fill="#FFD700" cx="114.525" cy="103.818" rx="5.683" ry="5.9"/>
		</g>
	</g>
</g>
<g opacity="0.9">
	<polygon fill="#FFFFFF" points="309.556,120.894 303.853,123.474 298.542,115.883 306.558,112.742 	"/>
</g>
<g opacity="0.8">
	<g>
		<path fill="#292929" d="M306.427,121.263c0.262-5.007,3.064-5.455,7.127-10.575c2.213-2.791,3.23-5.508,3.23-7.158
			c0-5.729-4.66-10.373-10.41-10.373l0,0c-5.752,0-10.412,4.644-10.412,10.373c0,1.65,1.018,4.367,3.23,7.158
			c4.063,5.12,6.865,5.568,7.129,10.575H306.427z"/>
		<g>
			<ellipse fill="#FFD700" cx="306.374" cy="103.818" rx="5.683" ry="5.9"/>
		</g>
	</g>
</g>
<g opacity="0.9">
	
		<linearGradient id="SVGID_5_" gradientUnits="userSpaceOnUse" x1="271.1851" y1="251.7671" x2="287.5044" y2="251.7671" gradientTransform="matrix(0.9841 -0.1775 0.1775 0.9841 -32.2524 -115.3832)">
		<stop  offset="0" style="stop-color:#F5F5F5"/>
		<stop  offset="0.6867" style="stop-color:#E3E3E3"/>
	</linearGradient>
	<path fill="url(#SVGID_5_)" d="M296.328,86.658c-5.24-7.906-11.51-11.741-11.51-11.741l-6.508,3.786c0,0,6.672,8.723,9.359,12.372
		L296.328,86.658z"/>
</g>
</svg>
