<?xml version="1.0" encoding="utf-8"?>
<!-- Generator: Adobe Illustrator 16.0.0, SVG Export Plug-In . SVG Version: 6.00 Build 0)  -->
<!DOCTYPE svg PUBLIC "-//W3C//DTD SVG 1.1//EN" "http://www.w3.org/Graphics/SVG/1.1/DTD/svg11.dtd">
<svg version="1.1" id="Layer_1" xmlns="http://www.w3.org/2000/svg" xmlns:xlink="http://www.w3.org/1999/xlink" x="0px" y="0px"
	 width="158.4px" height="158.4px" viewBox="0 0 158.4 158.4" enable-background="new 0 0 158.4 158.4" xml:space="preserve">
<path fill="#FFD700" d="M148.38,84.012c-0.528-1.056-1.386-1.882-2.574-2.476c-1.189-0.596-2.478-0.857-3.863-0.792
	c-1.387,0.067-2.545,0.692-3.467,1.882c-1.585,2.247-3.006,4.128-4.26,5.646c-1.256,1.52-3.138,3.336-5.645,5.447
	c-4.491,4.096-8.717,7.463-12.68,10.104l5.152-10.104c0.791-1.451,1.946-3.597,3.465-6.438c1.518-2.838,3.137-5.844,4.854-9.012
	c1.716-3.169,3.399-6.305,5.052-9.41c1.65-3.102,3.003-5.712,4.062-7.825c1.056-1.848,1.154-3.3,0.297-4.358
	c-0.86-1.055-2.114-1.684-3.764-1.882c-1.653-0.198-3.401,0.068-5.249,0.792c-1.852,0.728-3.17,1.882-3.963,3.467
	c-0.925-0.923-1.915-1.715-2.971-2.377c-1.059-0.66-2.213-1.219-3.467-1.684c-1.257-0.461-2.742-0.694-4.457-0.694
	c-2.511,0-5.448,0.53-8.815,1.585c-3.368,1.059-6.834,2.709-10.4,4.953c-3.565,2.247-7.1,5.121-10.598,8.617
	c-3.501,3.5-6.505,7.626-9.014,12.38c-0.171,0.308-0.324,0.609-0.485,0.914c-1.578,2.22-3.756,4.751-6.544,7.604
	c-2.842,2.905-5.779,5.481-8.816,7.725c-0.663,0.529-1.386,1.025-2.179,1.486c-0.792,0.465-1.486,0.762-2.081,0.892
	c-0.594,0.134-0.925-0.03-0.991-0.494c-0.067-0.462,0.298-1.419,1.091-2.874c1.714-2.773,3.333-5.447,4.853-8.022
	c1.517-2.574,3.001-5.313,4.457-8.222c2.244-4.09,3.962-7.755,5.15-10.992c1.189-3.235,1.121-6.172-0.197-8.816
	c-0.792-1.716-1.817-3.234-3.071-4.556c-1.257-1.319-2.807-2.111-4.655-2.377c-1.851-0.263-4.129,0.133-6.835,1.189
	c-2.708,1.058-5.843,3.169-9.41,6.339c2.377-5.281,4.656-10.431,6.835-15.452c2.179-5.018,4.191-9.54,6.042-13.57
	c1.848-4.026,3.368-7.428,4.556-10.202c1.189-2.773,1.982-4.556,2.377-5.348c0.659-1.585,0.496-2.903-0.495-3.962
	c-0.99-1.055-2.312-1.783-3.961-2.179c-1.653-0.396-3.303-0.427-4.953-0.099c-1.652,0.331-2.742,1.157-3.268,2.477l-42.789,91.718
	c-1.188,2.511-1.288,4.591-0.297,6.24c0.991,1.652,2.377,2.773,4.159,3.367c1.783,0.595,3.634,0.625,5.547,0.099
	c1.913-0.529,3.333-1.715,4.259-3.565l13.471-30.11c1.848-1.848,3.829-3.596,5.942-5.249c2.11-1.65,4.225-3.201,6.338-4.656
	c0.66-0.527,1.486-1.022,2.478-1.485c0.989-0.461,1.813-0.759,2.476-0.891c0.659-0.131,1.089,0.034,1.288,0.495
	c0.197,0.464-0.1,1.419-0.892,2.872c-0.662,0.926-1.355,2.081-2.079,3.467c-0.728,1.387-1.52,2.842-2.377,4.358
	c-0.861,1.52-1.684,3.004-2.476,4.458c-0.792,1.455-1.455,2.708-1.982,3.764c-2.246,4.229-3.862,7.958-4.853,11.191
	c-0.991,3.239-0.826,6.175,0.495,8.815c0.792,1.718,1.913,3.17,3.369,4.358c1.451,1.188,3.268,1.813,5.447,1.882
	c2.179,0.064,4.686-0.494,7.528-1.684c2.837-1.189,6.041-3.368,9.606-6.538c1.28-1.099,2.518-2.281,3.735-3.506
	c0.212,0.948,0.472,1.862,0.82,2.715c1.188,2.905,3.036,5.15,5.547,6.734c2.506,1.585,5.478,2.378,8.914,2.378
	c2.507,0,4.655-0.233,6.438-0.693c1.782-0.461,3.397-1.021,4.854-1.685l-0.397,0.99c-4.357,1.715-8.452,3.137-12.281,4.26
	c-3.832,1.12-7.265,2.377-10.301,3.764c-3.036,1.388-5.646,3.071-7.825,5.052c-2.179,1.98-3.795,4.686-4.854,8.122
	c-1.317,3.962-0.692,7.163,1.882,9.607c2.576,2.442,6.011,3.729,10.3,3.862c4.291,0.132,8.88-1.089,13.769-3.664
	c4.883-2.575,8.979-6.967,12.281-13.174l6.537-12.48c4.358-1.717,8.583-3.565,12.679-5.546c4.092-1.981,7.657-4.226,10.696-6.736
	c1.849-1.585,3.665-3.269,5.449-5.051c1.781-1.783,3.397-3.566,4.853-5.349c1.452-1.782,2.739-3.432,3.863-4.951
	c1.12-1.518,2.011-2.675,2.674-3.469C148.708,86.191,148.907,85.07,148.38,84.012z M88.556,128.781
	c-1.585,2.641-3.269,4.623-5.052,5.943c-1.783,1.318-3.402,2.145-4.853,2.477c-1.455,0.327-2.644,0.263-3.565-0.198
	c-0.922-0.464-1.254-1.223-0.991-2.278c0.397-1.585,2.146-3.169,5.25-4.754c3.101-1.585,6.963-3.304,11.588-5.15L88.556,128.781z
	 M109.355,88.173c-1.98,2.644-3.996,4.952-6.042,6.934c-2.049,1.979-4.061,3.564-6.042,4.754c-1.98,1.189-3.798,1.915-5.447,2.179
	c-1.652,0.266-2.94,0-3.863-0.793c-1.06-0.792-1.685-2.012-1.882-3.665c-0.198-1.649,0-3.564,0.595-5.744
	c0.594-2.179,1.55-4.522,2.872-7.032c1.318-2.507,2.972-5.083,4.952-7.726c1.98-2.506,3.993-4.755,6.042-6.734
	c2.046-1.981,4.026-3.566,5.942-4.754c1.913-1.188,3.696-1.948,5.349-2.279c1.649-0.328,3.003-0.099,4.061,0.694
	c1.057,0.791,1.65,2.016,1.784,3.665c0.129,1.652-0.099,3.564-0.694,5.745c-0.594,2.179-1.519,4.556-2.772,7.13
	C112.952,83.121,111.336,85.664,109.355,88.173z"/>
</svg>
